<?xml version="1.0" encoding="utf-8"?>
<!-- Generator: Adobe Illustrator 22.1.0, SVG Export Plug-In . SVG Version: 6.00 Build 0)  -->
<svg version="1.1" id="Layer_1" xmlns="http://www.w3.org/2000/svg" xmlns:xlink="http://www.w3.org/1999/xlink" x="0px" y="0px"
	 viewBox="0 0 400 400" style="enable-background:new 0 0 400 400;" xml:space="preserve">
<style type="text/css">
	.st0{fill:#C9C9C9;}
</style>
<title>dribbble_logo</title>
<path class="st0" d="M200,2C90.6,2,2,90.6,2,200s88.6,198,198,198s198-88.6,198-198S309.4,2,200,2z M330.7,93.3
	c24.4,29.7,37.8,66.8,38.2,105.2c-5.6-1.1-61.4-12.4-117.7-5.4c-1.3-2.8-2.4-5.8-3.6-8.8c-3.4-8.2-7.3-16.5-11.2-24.5
	C299,134.5,327.1,98,330.7,93.3z M200,31.2c41.3,0,81.2,15.1,112.1,42.5c-3,4.3-28.6,38.5-88.7,61c-18.9-34.3-39.9-67.4-63-99
	C173.4,32.7,186.7,31.2,200,31.2z M128,47.1c22.7,31.4,43.6,64,62.7,97.7c-51.1,13.4-103.6,20.3-156.3,20.6
	C45.4,113.5,80.1,69.8,128,47.1L128,47.1z M30.8,200.2v-5.1c58.8,0.3,117.3-7.8,173.7-24c4.9,9.5,9.4,19.1,13.7,28.8l-6.7,1.9
	C124.4,229.9,78,306.9,74.2,313.2C46.2,282.2,30.8,241.9,30.8,200.2z M200,369.2c-37.6,0.1-74.1-12.5-103.7-35.6
	c3-6.2,37.3-72.3,132.7-105.7c0.4,0,0.6,0,1.1-0.4c16.1,41.5,28.2,84.4,36.1,128.2C245.2,364.7,222.7,369.3,200,369.2z M294.3,340.2
	c-7.5-41-18.5-81.3-32.9-120.4c35.2-5.2,71.1-2.7,105.2,7.3C359.4,273.2,333.1,314.3,294.3,340.2z"/>
</svg>
