<?xml version="1.0" encoding="utf-8"?>
<!-- Generator: Adobe Illustrator 22.1.0, SVG Export Plug-In . SVG Version: 6.00 Build 0)  -->
<svg version="1.1" id="Layer_1" xmlns="http://www.w3.org/2000/svg" xmlns:xlink="http://www.w3.org/1999/xlink" x="0px" y="0px"
	 viewBox="0 0 400 400" style="enable-background:new 0 0 400 400;" xml:space="preserve">
<style type="text/css">
	.st0{fill:#C9C9C9;}
</style>
<title>instagram_logo</title>
<g>
	<path class="st0" d="M288.7,2H111.3C51,2,2,51,2,111.3v177.4C2,349,51,398,111.3,398h177.4C349,398,398,349,398,288.7V111.3
		C398,51,349,2,288.7,2z M362.9,288.7c-0.1,40.9-33.2,74.1-74.1,74.1H111.3c-40.9-0.1-74.1-33.2-74.1-74.1V111.3
		c0.1-40.9,33.2-74.1,74.1-74.1h177.4c40.9,0.1,74.1,33.2,74.1,74.1V288.7z"/>
	<path class="st0" d="M200,98c-56.3,0-102,45.8-102,102s45.8,102,102,102s102-45.8,102-102S256.3,98,200,98z M200,266.9
		c-36.9,0-66.9-30-66.9-66.9s30-66.9,66.9-66.9s66.9,30,66.9,66.9C266.9,236.9,236.9,266.9,200,266.9z"/>
	<path class="st0" d="M306.3,68.2c-14.2,0-25.7,11.5-25.7,25.7c0,14.2,11.5,25.7,25.7,25.7c14.2,0,25.7-11.5,25.7-25.7
		c0-6.8-2.7-13.4-7.5-18.2C319.7,70.9,313.1,68.2,306.3,68.2z"/>
</g>
</svg>
