<?xml version="1.0" encoding="utf-8"?>
<!-- Generator: Adobe Illustrator 23.0.1, SVG Export Plug-In . SVG Version: 6.00 Build 0)  -->
<svg version="1.1"
	 id="svg2" xmlns:cc="http://creativecommons.org/ns#" xmlns:dc="http://purl.org/dc/elements/1.1/" xmlns:inkscape="http://www.inkscape.org/namespaces/inkscape" xmlns:rdf="http://www.w3.org/1999/02/22-rdf-syntax-ns#" xmlns:sodipodi="http://sodipodi.sourceforge.net/DTD/sodipodi-0.dtd" xmlns:svg="http://www.w3.org/2000/svg"
	 xmlns="http://www.w3.org/2000/svg" xmlns:xlink="http://www.w3.org/1999/xlink" x="0px" y="0px" viewBox="0 0 220 55"
	 style="enable-background:new 0 0 220 55;" xml:space="preserve">
<g id="layer3" inkscape:groupmode="layer" inkscape:label="2016-rev">
	<g id="g3486">
		<g id="g3478">
			<path id="path3299" inkscape:connector-curvature="0" d="M110.1,19.1c-2.2,0.1-4.2,0.9-5.9,2.3c-0.6,0.4-1.3,1.1-1.7,1.8
				c-0.9,1.2-1.6,2.5-2,3.9c-1.2,4-1,8.4,0.9,12.1c0.7,1.3,1.5,2.5,2.7,3.4c1,0.6,2.1,1.4,3.3,1.7c3.2,1,7,0.5,9.7-1.6
				c0.7-0.4,1.3-1.2,1.8-1.9c0-0.2,0.5-0.9,0.6-0.3c0,4,0,8.1,0,12.1c1.2,0,2.4,0,3.7,0c0-11,0-21.9,0-32.9c-1.2,0-2.4,0-3.7,0
				c0,1.5,0,2.9,0,4.4c-0.7-1-1.2-2-2.2-2.6C115.3,19.8,112.7,18.9,110.1,19.1z M111.4,22.4c1.7,0,3.6,0.5,4.8,1.5
				c1,0.8,1.7,1.6,2.2,2.7c1.4,2.9,1.5,6.4,0.4,9.5c-0.5,1.5-1.4,2.7-2.6,3.7c-1.8,1.5-4.3,1.8-6.6,1.4c-1.5-0.3-2.8-1.1-3.7-2.2
				c-1.8-2-2.3-4.8-2.3-7.4c0.1-2.2,0.5-4.6,1.9-6.4c0.9-1.1,2.1-2.1,3.6-2.5C109.9,22.4,110.6,22.4,111.4,22.4L111.4,22.4z"/>
			<path id="path3297" inkscape:connector-curvature="0" d="M83.2,9.7c-2.8,0.1-5.6,0.8-7.8,2.6c-0.5,0.3-1,0.9-1.3,1.3
				c-1.4,1.7-2.1,4-1.8,6.1c0.1,1.6,0.7,3.1,1.7,4.3c0.3,0.5,0.9,1,1.4,1.3c2.9,2.2,6.6,2.7,10,3.7c2.1,0.6,4.6,1.1,6,3
				c1.2,1.4,1.1,3.6,0.5,5.3c-0.6,1.4-1.8,2.4-3,3.1c-2.7,1.2-5.8,1.1-8.6,0.3C78.2,40,76.4,38.8,75,37c-0.3-0.6-0.7-0.9-1.2-0.3
				c-0.8,0.6-1.6,1.2-2.5,1.7c0.7,1,1.4,2,2.4,2.8c1.6,1.2,3.3,2.3,5.3,2.8c3.7,1.1,7.8,1,11.3-0.5c1.4-0.7,2.8-1.5,3.8-2.8
				c1.3-1.6,2.2-3.7,2.2-5.8c0.1-2-0.5-4.1-1.9-5.6c-0.3-0.4-0.7-0.8-1.2-1.1c-0.7-0.6-1.4-1-2.2-1.4c-3.7-1.8-7.8-2.2-11.6-3.8
				c-1.1-0.6-2.3-1.4-2.9-2.5c-0.9-2-0.2-4.5,1.5-5.7c1.5-1.2,3.6-1.6,5.5-1.6c3.3,0,6.7,1.4,8.8,4.1c1-0.8,2-1.5,3-2.3
				c-0.9-1.2-2-2.2-3.2-3C89.6,10.3,86.4,9.5,83.2,9.7z"/>
			<path id="path3301" inkscape:connector-curvature="0" d="M129.3,35.6c0,2.1,0.4,4.4,1.8,6.1c0.6,0.9,1.7,1.7,2.7,2.2
				c2.6,1.2,5.8,1,8.4-0.2c1.2-0.6,2.3-1.4,3.1-2.5c0.3-0.3,0.7-1.2,0.9-1.3c0,1.4,0,2.8,0,4.2c1.2,0,2.4,0,3.7,0
				c0-8.2,0-16.4,0-24.5c-1.2,0-2.4,0-3.7,0c0,5,0.1,10-0.1,15c-0.3,2-1.2,4-2.9,5.2c-2,1.5-4.9,1.9-7.3,1c-1.7-0.7-2.6-2.6-2.7-4.4
				c-0.3-3.1-0.1-6.3-0.1-9.4c0-2.5,0-4.9,0-7.4c-1.2,0-2.5,0-3.7,0C129.3,24.9,129.3,30.2,129.3,35.6z"/>
			<path id="path3303" inkscape:connector-curvature="0" d="M164.8,19.1c-3.2,0.1-6.3,1.1-8.9,3c0.5,0.9,1.1,1.8,1.6,2.7
				c2.2-1.7,4.9-2.3,7.6-2.4c2,0,4.2,0.3,5.4,2.1c0.6,1.2,0.5,2.9-0.6,3.7c-0.9,0.9-2.5,1.2-3.8,1.5c-2.5,0.5-5.2,0.6-7.5,1.6
				c-1.1,0.5-2.1,1.2-2.7,2.2c-1.3,1.6-1.4,3.9-1,5.9c0.2,1.1,0.8,2.1,1.5,3c0.4,0.5,1.1,0.9,1.7,1.3c2.3,1.3,5.1,1.4,7.6,0.9
				c1.5-0.3,2.9-1.1,4-2.1c0.6-0.4,0.7-1,1.2-1.3c0.5,0.1,0.1,0.9,0.2,1.3c0,0.6,0,1.3,0,1.9c1.2,0,2.4,0,3.5,0
				c0-6.4,0.1-12.7-0.1-19.1c-0.3-1.7-1.2-3.6-2.7-4.4C169.7,19.4,167.2,18.9,164.8,19.1L164.8,19.1z M170.8,30.6
				c-0.1,2.6,0.4,5.3-0.9,7.7c-1.1,1.9-3.1,3-5.3,3.2c-1.9,0.2-4.1-0.1-5.4-1.6c-0.9-1.1-1.1-2.8-0.7-4.2c0.3-1.2,1.4-1.9,2.6-2.3
				c2.7-0.9,5.6-0.9,8.3-2c0.5-0.3,1-0.6,1.4-1C170.8,30.5,170.8,30.6,170.8,30.6z"/>
			<path id="path3305" inkscape:connector-curvature="0" d="M191.4,19.2c-2,0.2-3.9,1-5.2,2.3c-0.6,0.7-1.1,1.5-1.7,2.3
				c0-1.4,0-2.8,0-4.1c-1.2,0-2.4,0-3.7,0c0,8.2,0,16.4,0,24.5c1.2,0,2.4,0,3.7,0c0-4.8-0.1-9.6,0.1-14.3c0.3-2.3,1.3-4.7,3.2-6
				c1.8-1.3,4.3-1.4,6.3-0.6c0.4-0.2,0.3-1,0.5-1.4c0.2-0.6,0.3-1.2,0.5-1.8C193.9,19.3,192.6,19.1,191.4,19.2L191.4,19.2z"/>
			<path id="path3307" inkscape:connector-curvature="0" d="M207.3,19.1c-2.1,0-4.2,0.8-6,2c-0.4,0.3-0.8,0.6-1.2,0.9
				c-0.9,0.9-1.6,2-2.3,3.1c-1.8,3.6-2,7.9-0.9,11.7c0.5,1.7,1.6,3.4,2.7,4.7c0.5,0.5,1,0.9,1.4,1.2c1.9,1.3,4.1,2.1,6.4,2.1
				c3.1,0.2,6.3-0.6,8.6-2.5c0.7-0.5,1.4-1.1,2-1.8c-0.8-0.8-1.6-1.5-2.5-2.3c-1.3,1.6-3.1,2.8-5.2,3.1c-2.8,0.5-6.1-0.1-8.1-2.3
				c-1.6-1.6-2.2-4-2.2-6.2c0.3-0.6,1.2-0.1,1.8-0.3c5.7,0,11.4,0,17.1,0c0.4-3.3-0.3-6.8-2.5-9.5c-0.5-0.8-1.3-1.3-2.1-1.9
				C212.5,19.5,209.9,18.9,207.3,19.1L207.3,19.1z M208.7,22.2c2.4,0.1,4.8,1.5,5.9,3.7c0.5,1.2,0.9,2.4,0.9,3.7
				c-5.1,0-10.1,0-15.2,0c0.2-1.8,0.7-3.7,2-5c0.2-0.4,0.9-0.8,1.3-1.2C205.1,22.4,206.9,22.1,208.7,22.2z"/>
		</g>
		<path id="path3010" inkscape:connector-curvature="0" d="M45.3,0.9H9.9C5,0.9,1,4.9,1,9.8v35.5c0,4.9,4,8.9,8.9,8.9h35.5
			c4.9,0,8.9-4,8.9-8.9V9.8C54.2,4.9,50.2,0.9,45.3,0.9 M44.5,41.6c0,1.5-1.3,2.8-2.8,2.8H13.5c-1.6,0-2.8-1.3-2.8-2.8V13.4
			c0-1.6,1.3-2.8,2.8-2.8h28.2c1.6,0,2.8,1.3,2.8,2.8V41.6z M34.9,33.1c0,0.9-0.7,1.6-1.6,1.6H22c-0.9,0-1.6-0.7-1.6-1.6V21.9
			c0-0.9,0.7-1.6,1.6-1.6h11.3c0.9,0,1.6,0.7,1.6,1.6V33.1z"/>
	</g>
</g>
</svg>
