<?xml version="1.0" encoding="utf-8"?>
<!-- Generator: Adobe Illustrator 23.0.2, SVG Export Plug-In . SVG Version: 6.00 Build 0)  -->
<svg version="1.1" id="Layer_1" xmlns="http://www.w3.org/2000/svg" xmlns:xlink="http://www.w3.org/1999/xlink" x="0px" y="0px"
	 viewBox="0 0 1920 763" style="enable-background:new 0 0 1920 763;" xml:space="preserve">
<style type="text/css">
	.st0{fill:url(#SVGID_1_);}
	.st1{fill:#4A318A;}
	.st2{display:none;}
	.st3{display:inline;fill:#FFFFFF;}
	.st4{display:inline;opacity:0.5;fill:#FFFFFF;enable-background:new    ;}
	.st5{display:inline;fill:url(#SVGID_2_);}
	.st6{fill:#FFFFFF;}
</style>
<g>
	<title>StarsV1-02</title>
	
		<linearGradient id="SVGID_1_" gradientUnits="userSpaceOnUse" x1="0" y1="382.5" x2="1920" y2="382.5" gradientTransform="matrix(1 0 0 -1 0 764)">
		<stop  offset="0" style="stop-color:#4A318A"/>
		<stop  offset="1" style="stop-color:#2C245F"/>
	</linearGradient>
	<rect class="st0" width="1920" height="763"/>
	<path class="st1" d="M1536.8,489.7c-2.3-4.1-2.3-9-0.1-13.1l82.6-151.2c3.6-6.5,1.2-14.7-5.3-18.3c-2.8-1.5-6-2-9.1-1.4l-169,33.6
		c-4.6,0.9-9.3-0.6-12.4-4L1305.2,210c-5.1-5.4-13.7-5.7-19.1-0.6c-2.3,2.2-3.8,5.1-4.1,8.2l-20.3,171.1c-0.5,4.6-3.4,8.6-7.6,10.6
		L1098.4,473c-6.7,3.2-9.6,11.2-6.4,18c1.4,2.9,3.7,5.2,6.5,6.5l156.4,72.2c4.2,2,7.1,5.9,7.7,10.5l22,170.9
		c0.9,7.4,7.7,12.6,15.1,11.7c3.2-0.4,6.1-1.9,8.2-4.2l117-126.5c3.2-3.4,7.8-5,12.4-4.1l169.3,31.9c7.3,1.4,14.4-3.4,15.8-10.8
		c0.6-3.1,0.1-6.3-1.5-9.1L1536.8,489.7z"/>
	<path class="st1" d="M780.3,23.9L678,122.4c-4.4,4.3-4.6,11.3-0.3,15.8c1.8,1.9,4.2,3.1,6.8,3.3l141.3,15.3
		c3.8,0.4,7.1,2.8,8.8,6.2l62.1,127.8c2.7,5.5,9.3,7.8,14.9,5.2c2.4-1.1,4.2-3.1,5.3-5.5l58.2-129.6c1.6-3.5,4.8-5.9,8.6-6.5
		l140.7-19.6c6.1-0.8,10.3-6.5,9.5-12.6c-0.4-2.6-1.6-5-3.6-6.7L1025,20.1c-2.8-2.6-4.2-6.4-3.5-10.2l1.8-9.9H780.7l2.8,13.6
		C784.3,17.3,783.1,21.2,780.3,23.9z"/>
	<path class="st1" d="M1635.4,0l23.8,26.6c2.5,2.8,3.4,6.6,2.3,10.2l-38.4,132.9c-1.7,5.8,1.7,11.8,7.4,13.4c2.4,0.7,5,0.5,7.4-0.5
		l126.6-55.8c3.4-1.5,7.4-1.1,10.4,0.9l114.5,77.6c4.9,3.4,11.7,2.1,15-2.9c1.4-2.1,2.1-4.7,1.8-7.2l-13.9-137.6
		c-0.4-3.7,1.2-7.3,4.1-9.6l23.5-18.3V0H1635.4z"/>
	<path class="st1" d="M102.2,163.7l66.1,107.7c2.9,4.7,8.9,6.1,13.6,3.3c2-1.2,3.5-3.1,4.2-5.3l40.3-119.8c1.1-3.2,3.8-5.7,7.1-6.5
		l122.9-29.5c5.3-1.3,8.6-6.6,7.3-12c-0.5-2.3-1.9-4.3-3.7-5.6L258.5,20.7c-2.7-2-4.3-5.3-4-8.7l0.9-12H32.8L44,35.8
		c1,3.2,0.3,6.8-1.9,9.4L0,94.6V158l93.9,1C97.3,159,100.4,160.8,102.2,163.7z"/>
	<path class="st1" d="M722.3,485.4l-135.6-42.8c-3.7-1.2-6.5-4.1-7.4-7.8l-35.8-137.6c-1.6-6-7.7-9.5-13.6-7.9
		c-2.5,0.7-4.7,2.2-6.2,4.3L441,409.2c-2.2,3.1-5.9,4.9-9.7,4.6l-142-8.5c-6.1-0.4-11.4,4.3-11.8,10.5c-0.2,2.6,0.6,5.2,2.2,7.3
		l84.6,114.3c2.3,3.1,2.8,7.1,1.4,10.7l-51.9,132.4c-2.2,5.7,0.6,12.2,6.3,14.4c2.4,1,5.1,1,7.6,0.2L462.6,650
		c3.6-1.2,7.7-0.4,10.6,2L583,742.4c4.7,3.9,11.8,3.2,15.7-1.5c1.7-2,2.6-4.6,2.5-7.2L600,591.5c0-3.8,1.9-7.4,5.1-9.5L725,505.4
		c5.2-3.3,6.7-10.2,3.4-15.4C727,487.8,724.8,486.1,722.3,485.4L722.3,485.4z"/>
	<title>WhiteShapeV1</title>
	<g class="st2">
		<path class="st3" d="M767,694.9c-125,20-176,13-234-19L0,371.1V773h1920V509L767,694.9z"/>
		<path class="st4" d="M776,662.8c-125,20-176,13-234-19L0,339v401.9h1920v-264L776,662.8z"/>
	</g>
</g>
<g id="Junk" class="st2">
	
		<linearGradient id="SVGID_2_" gradientUnits="userSpaceOnUse" x1="-275" y1="1102" x2="1831" y2="1102" gradientTransform="matrix(1 0 0 -1 0 764)">
		<stop  offset="0" style="stop-color:#4A318A"/>
		<stop  offset="1" style="stop-color:#2C245F"/>
	</linearGradient>
	<rect x="-275" y="-468" class="st5" width="2106" height="260"/>
</g>
<path class="st6" d="M1090,431C693.4,737.3,266,756,0,475v288h1920V422C1758,288,1371,214,1090,431z"/>
</svg>
