<?xml version="1.0" encoding="utf-8"?>
<!-- Generator: Adobe Illustrator 22.1.0, SVG Export Plug-In . SVG Version: 6.00 Build 0)  -->
<svg version="1.1" id="Layer_1" xmlns="http://www.w3.org/2000/svg" xmlns:xlink="http://www.w3.org/1999/xlink" x="0px" y="0px"
	 viewBox="0 0 400 327" style="enable-background:new 0 0 400 327;" xml:space="preserve">
<style type="text/css">
	.st0{fill:#C9C9C9;}
</style>
<g id="Logo_FIXED">
	<path class="st0" d="M125.6,327c150.9,0,233.5-125.8,233.5-234.7c0-3.5,0-7.1-0.2-10.6c16.1-11.7,30-26.2,41-42.8
		c-15,6.7-30.9,11.1-47.2,13c17.2-10.3,30-26.6,36.2-45.7c-16.1,9.6-33.8,16.4-52.2,19.9c-31-33.2-83-34.9-116-3.7
		c-16.5,15.6-25.9,37.4-25.9,60.2c0,6.3,0.7,12.6,2.1,18.8c-66-3.3-127.5-34.7-169.2-86.2C6,52.9,17.1,101.1,53.1,125.4
		c-13-0.5-25.7-4-37.1-10.3v1.1c0,39.3,27.5,73.1,65.8,80.9c-7,2-14.3,2.9-21.6,2.9c-5.2,0-10.3-0.5-15.4-1.4
		c10.7,33.6,41.6,56.6,76.7,57.3c-29.1,23-65,35.4-102,35.4c-6.5,0-13-0.3-19.5-1.1C37.5,314.1,81.1,326.9,125.6,327"/>
</g>
</svg>
