<?xml version="1.0" encoding="utf-8"?>
<!-- Generator: Adobe Illustrator 22.1.0, SVG Export Plug-In . SVG Version: 6.00 Build 0)  -->
<svg version="1.1" id="Layer_1" xmlns="http://www.w3.org/2000/svg" xmlns:xlink="http://www.w3.org/1999/xlink" x="0px" y="0px"
	 viewBox="0 0 400 281.8" style="enable-background:new 0 0 400 281.8;" xml:space="preserve">
<style type="text/css">
	.st0{fill:#C9C9C9;}
</style>
<title>Youtubewhite</title>
<path class="st0" d="M389.7,45c-4.6-17.1-17.9-30.6-35-35.2C323.8,1.4,200,1.4,200,1.4S76.3,1.4,45.3,9.7
	c-17.1,4.7-30.5,18.1-35,35.2C2,76.1,2,140.9,2,140.9s0,64.8,8.3,95.9c4.6,17.1,17.9,30.6,35,35.2c31,8.3,154.7,8.3,154.7,8.3
	s123.8,0,154.7-8.3c17.1-4.7,30.5-18.1,35-35.2c8.3-31.1,8.3-95.9,8.3-95.9S398,76.1,389.7,45z M159.5,199.8V82L263,140.9
	L159.5,199.8z"/>
</svg>
